<svg width="1228" height="262" viewBox="0 0 1228 262" fill="none" xmlns="http://www.w3.org/2000/svg">
<g clip-path="url(#clip0_109_2)">
<path d="M303.462 89.4077V214.81H276.841V89.4077H303.462ZM290.322 41.3765C294.4 41.3765 297.912 42.4715 300.857 44.6616C303.878 46.8517 305.388 50.6278 305.388 55.9897C305.388 61.2762 303.878 65.0522 300.857 67.3179C297.912 69.508 294.4 70.603 290.322 70.603C286.093 70.603 282.505 69.508 279.56 67.3179C276.69 65.0522 275.255 61.2762 275.255 55.9897C275.255 50.6278 276.69 46.8517 279.56 44.6616C282.505 42.4715 286.093 41.3765 290.322 41.3765ZM439.966 169.724C439.966 179.542 437.55 188 432.716 195.099C427.958 202.198 421.086 207.636 412.099 211.412C403.188 215.188 392.539 217.076 380.154 217.076C374.112 217.076 368.335 216.736 362.822 216.056C357.309 215.376 352.098 214.395 347.189 213.111C342.356 211.751 337.938 210.128 333.935 208.24V182.638C340.656 185.583 348.171 188.264 356.478 190.681C364.785 193.022 373.244 194.193 381.853 194.193C388.876 194.193 394.692 193.287 399.298 191.474C403.981 189.586 407.455 186.943 409.72 183.544C411.986 180.07 413.119 176.03 413.119 171.423C413.119 166.514 411.797 162.361 409.154 158.962C406.511 155.564 402.508 152.468 397.146 149.673C391.86 146.804 385.214 143.745 377.208 140.498C371.771 138.307 366.56 135.815 361.576 133.021C356.667 130.227 352.287 126.942 348.435 123.166C344.583 119.389 341.525 114.934 339.259 109.798C337.069 104.587 335.974 98.4702 335.974 91.4468C335.974 82.0822 338.202 74.077 342.658 67.4312C347.189 60.7853 353.533 55.6877 361.689 52.1382C369.921 48.5887 379.512 46.814 390.462 46.814C399.147 46.814 407.304 47.7202 414.931 49.5327C422.634 51.3452 430.186 53.9129 437.587 57.2358L428.978 79.0991C422.181 76.3049 415.573 74.077 409.154 72.4155C402.81 70.7541 396.315 69.9233 389.669 69.9233C383.93 69.9233 379.059 70.7918 375.056 72.5288C371.054 74.2658 367.995 76.7202 365.88 79.8921C363.841 82.9884 362.822 86.689 362.822 90.9937C362.822 95.827 363.992 99.9051 366.333 103.228C368.75 106.475 372.451 109.458 377.435 112.177C382.495 114.896 388.99 117.917 396.919 121.24C406.057 125.016 413.798 128.981 420.142 133.134C426.561 137.288 431.47 142.272 434.869 148.087C438.267 153.827 439.966 161.039 439.966 169.724ZM538.748 124.865H600.599V208.013C591.914 210.883 582.927 213.111 573.638 214.697C564.349 216.283 553.927 217.076 542.373 217.076C525.531 217.076 511.258 213.753 499.552 207.107C487.922 200.386 479.086 190.681 473.044 177.994C467.003 165.231 463.982 149.862 463.982 131.888C463.982 114.594 467.343 99.603 474.064 86.9155C480.785 74.1525 490.565 64.297 503.404 57.3491C516.242 50.3257 531.8 46.814 550.076 46.814C559.063 46.814 567.748 47.7202 576.13 49.5327C584.589 51.2697 592.33 53.6864 599.353 56.7827L589.837 79.2124C584.249 76.5692 577.981 74.3413 571.033 72.5288C564.085 70.7163 556.873 69.8101 549.396 69.8101C537.539 69.8101 527.306 72.3778 518.697 77.5132C510.163 82.6486 503.593 89.8986 498.986 99.2632C494.379 108.552 492.076 119.541 492.076 132.228C492.076 144.538 493.926 155.337 497.626 164.626C501.327 173.916 507.104 181.166 514.958 186.376C522.888 191.512 533.121 194.08 545.658 194.08C551.926 194.08 557.25 193.74 561.63 193.06C566.011 192.38 570.051 191.625 573.751 190.794V148.087H538.748V124.865ZM640.248 214.81V49.1929H667.435V191.701H737.783V214.81H640.248ZM812.888 87.0288C828.748 87.0288 840.718 90.5405 848.798 97.564C856.955 104.587 861.033 115.538 861.033 130.416V214.81H842.115L837.017 197.025H836.111C832.561 201.556 828.899 205.294 825.123 208.24C821.347 211.185 816.966 213.375 811.982 214.81C807.073 216.32 801.069 217.076 793.97 217.076C786.494 217.076 779.81 215.716 773.919 212.998C768.029 210.203 763.384 205.974 759.986 200.31C756.587 194.646 754.888 187.472 754.888 178.787C754.888 165.873 759.684 156.168 769.275 149.673C778.942 143.179 793.517 139.591 813.001 138.912L834.751 138.119V131.548C834.751 122.863 832.712 116.671 828.634 112.97C824.632 109.27 818.968 107.419 811.642 107.419C805.374 107.419 799.294 108.326 793.404 110.138C787.513 111.951 781.774 114.179 776.185 116.822L767.576 98.0171C773.693 94.7697 780.641 92.1265 788.419 90.0874C796.274 88.0483 804.43 87.0288 812.888 87.0288ZM834.638 154.884L818.439 155.451C805.147 155.904 795.82 158.169 790.458 162.248C785.097 166.326 782.416 171.914 782.416 179.013C782.416 185.206 784.266 189.737 787.966 192.607C791.667 195.401 796.538 196.798 802.58 196.798C811.793 196.798 819.421 194.193 825.462 188.982C831.58 183.695 834.638 175.955 834.638 165.759V154.884ZM924.923 38.5444V81.0249C924.923 85.9338 924.772 90.7671 924.47 95.5249C924.244 100.207 924.017 103.87 923.791 106.513H924.923C928.322 101.076 933.042 96.5067 939.083 92.8062C945.201 89.0301 953.017 87.1421 962.533 87.1421C977.41 87.1421 989.38 92.6174 998.443 103.568C1007.51 114.443 1012.04 130.567 1012.04 151.939C1012.04 166.137 1009.96 178.069 1005.81 187.736C1001.65 197.403 995.8 204.728 988.248 209.712C980.771 214.621 971.973 217.076 961.853 217.076C952.337 217.076 944.634 215.339 938.744 211.865C932.929 208.315 928.36 204.199 925.037 199.517H923.111L918.24 214.81H898.302V38.5444H924.923ZM955.509 108.779C947.957 108.779 941.953 110.289 937.498 113.31C933.117 116.331 929.945 120.862 927.982 126.904C926.018 132.87 924.999 140.46 924.923 149.673V152.052C924.923 166.024 927.113 176.71 931.494 184.111C935.949 191.512 944.03 195.212 955.736 195.212C965.025 195.212 972.162 191.474 977.146 183.998C982.13 176.445 984.623 165.646 984.623 151.599C984.623 137.401 982.13 126.715 977.146 119.541C972.237 112.366 965.025 108.779 955.509 108.779ZM1127.13 179.013C1127.13 187.245 1125.13 194.193 1121.13 199.857C1117.12 205.521 1111.27 209.826 1103.57 212.771C1095.94 215.641 1086.58 217.076 1075.47 217.076C1066.71 217.076 1059.16 216.434 1052.82 215.15C1046.55 213.942 1040.62 212.054 1035.03 209.486V186.49C1041 189.284 1047.68 191.701 1055.08 193.74C1062.56 195.779 1069.62 196.798 1076.27 196.798C1085.03 196.798 1091.33 195.439 1095.19 192.72C1099.04 189.926 1100.96 186.225 1100.96 181.619C1100.96 178.9 1100.17 176.483 1098.58 174.369C1097.07 172.179 1094.2 169.951 1089.97 167.685C1085.82 165.344 1079.7 162.55 1071.62 159.302C1063.69 156.13 1057.01 152.958 1051.57 149.787C1046.13 146.615 1042.02 142.801 1039.22 138.345C1036.43 133.814 1035.03 128.037 1035.03 121.013C1035.03 109.912 1039.41 101.491 1048.17 95.7515C1057.01 89.9364 1068.68 87.0288 1083.18 87.0288C1090.88 87.0288 1098.13 87.8218 1104.93 89.4077C1111.8 90.9181 1118.52 93.146 1125.09 96.0913L1116.71 116.142C1111.04 113.65 1105.34 111.611 1099.6 110.025C1093.94 108.363 1088.16 107.533 1082.27 107.533C1075.4 107.533 1070.15 108.59 1066.52 110.705C1062.98 112.819 1061.2 115.84 1061.2 119.767C1061.2 122.712 1062.07 125.205 1063.81 127.244C1065.54 129.283 1068.53 131.322 1072.76 133.361C1077.06 135.4 1083.03 137.93 1090.65 140.951C1098.13 143.82 1104.59 146.841 1110.02 150.013C1115.54 153.11 1119.77 156.923 1122.71 161.455C1125.66 165.986 1127.13 171.839 1127.13 179.013Z" fill="white"/>
<path d="M202.37 182.12L118.78 225.38L35.1799 182.12V92.1199L118.86 48.6399L202.37 92.0899V182.12Z" fill="white"/>
<path d="M201.85 92.3L234.78 75.08L238.1 73.36L155.01 30.01L119.01 48.78L83.0099 30.01L-0.0800781 73.48L3.23993 75.21L36.1699 92.43L3.36993 109.65L0.0499268 111.37L83.1399 154.85L119.14 136.08L155.14 154.85L238.23 111.37L234.91 109.65L201.85 92.3ZM119.05 126.62L53.4799 92.3L119.05 57.96L184.62 92.28L119.05 126.62Z" fill="#E3F1ED"/>
<path d="M118.88 136.03L77.1301 114.19L35.3701 92.3001L118.88 48.6101L202.37 92.3001L118.88 136.03Z" fill="white"/>
<path d="M1200.31 191.96L1196.48 190.88C1196.21 189.53 1195.82 188.208 1195.31 186.93L1197.96 183.93C1198.5 183.32 1198.81 182.536 1198.83 181.719C1198.85 180.901 1198.58 180.104 1198.06 179.47L1194.96 175.64C1194.45 175.002 1193.73 174.566 1192.93 174.412C1192.13 174.258 1191.3 174.396 1190.59 174.8L1187.12 176.8C1185.94 176.016 1184.68 175.346 1183.37 174.8L1183.13 170.88C1183.08 170.063 1182.74 169.289 1182.18 168.697C1181.61 168.105 1180.85 167.734 1180.04 167.65L1175.15 167.13C1174.34 167.042 1173.52 167.246 1172.84 167.706C1172.17 168.166 1171.68 168.851 1171.46 169.64L1170.36 173.51C1169.01 173.783 1167.69 174.181 1166.42 174.7L1163.42 172.06C1162.81 171.518 1162.03 171.211 1161.21 171.192C1160.39 171.174 1159.59 171.446 1158.96 171.96L1155.17 174.96C1154.53 175.474 1154.1 176.198 1153.95 177.001C1153.79 177.805 1153.93 178.637 1154.33 179.35L1156.33 182.86C1155.55 184.004 1154.88 185.22 1154.33 186.49L1150.41 186.73C1149.59 186.778 1148.82 187.113 1148.23 187.677C1147.64 188.242 1147.27 188.997 1147.18 189.81L1146.66 194.7C1146.57 195.513 1146.77 196.331 1147.23 197.009C1147.69 197.687 1148.37 198.18 1149.16 198.4L1153.04 199.49C1153.31 200.841 1153.71 202.164 1154.23 203.44L1151.6 206.37C1151.06 206.982 1150.75 207.768 1150.73 208.587C1150.71 209.406 1150.98 210.204 1151.5 210.84L1154.59 214.67C1155.1 215.303 1155.83 215.733 1156.63 215.887C1157.43 216.041 1158.26 215.907 1158.97 215.51L1162.48 213.51C1163.59 214.251 1164.76 214.887 1165.99 215.41L1166.22 219.41C1166.27 220.226 1166.6 220.999 1167.17 221.59C1167.73 222.182 1168.49 222.554 1169.3 222.64L1174.2 223.16C1175.01 223.252 1175.83 223.05 1176.51 222.592C1177.19 222.134 1177.68 221.449 1177.9 220.66L1178.98 216.83C1180.33 216.561 1181.65 216.169 1182.93 215.66L1185.93 218.3C1186.47 218.78 1187.14 219.081 1187.86 219.16C1188.31 219.208 1188.77 219.165 1189.21 219.035C1189.64 218.904 1190.05 218.689 1190.4 218.4L1194.22 215.31C1194.86 214.799 1195.29 214.078 1195.45 213.276C1195.6 212.474 1195.47 211.643 1195.07 210.93L1193.07 207.46C1193.85 206.319 1194.52 205.107 1195.07 203.84L1199.07 203.6C1199.89 203.553 1200.66 203.217 1201.25 202.653C1201.84 202.089 1202.21 201.333 1202.3 200.52L1202.82 195.63C1202.91 194.819 1202.71 194 1202.25 193.326C1201.79 192.652 1201.1 192.167 1200.31 191.96ZM1199.16 200.21C1199.15 200.283 1199.12 200.35 1199.07 200.4C1199.01 200.45 1198.94 200.478 1198.87 200.48L1193.87 200.77C1193.57 200.786 1193.28 200.889 1193.03 201.067C1192.79 201.244 1192.6 201.488 1192.49 201.77C1191.87 203.434 1191.02 205 1189.95 206.42C1189.77 206.664 1189.66 206.956 1189.64 207.259C1189.62 207.562 1189.69 207.865 1189.84 208.13L1192.28 212.48C1192.31 212.544 1192.33 212.618 1192.31 212.69C1192.3 212.761 1192.26 212.825 1192.2 212.87L1188.37 215.96C1188.34 215.989 1188.3 216.011 1188.26 216.023C1188.22 216.035 1188.18 216.038 1188.14 216.03C1188.11 216.03 1188.08 216.024 1188.05 216.012C1188.03 216 1188 215.982 1187.98 215.96L1184.25 212.66C1184.02 212.459 1183.74 212.328 1183.44 212.284C1183.14 212.239 1182.83 212.283 1182.55 212.41C1180.94 213.149 1179.23 213.654 1177.47 213.91C1177.17 213.954 1176.89 214.084 1176.66 214.284C1176.43 214.485 1176.27 214.748 1176.19 215.04L1174.85 219.83C1174.83 219.901 1174.79 219.962 1174.73 220.002C1174.67 220.043 1174.59 220.06 1174.52 220.05L1169.63 219.53C1169.56 219.525 1169.49 219.493 1169.43 219.439C1169.38 219.386 1169.35 219.315 1169.35 219.24L1169.06 214.24C1169.04 213.938 1168.94 213.647 1168.76 213.403C1168.59 213.158 1168.34 212.969 1168.06 212.86C1166.44 212.252 1164.91 211.428 1163.51 210.41C1163.28 210.244 1163.02 210.141 1162.74 210.11C1162.42 210.078 1162.09 210.148 1161.81 210.31L1157.44 212.77C1157.38 212.777 1157.32 212.777 1157.26 212.77C1157.17 212.757 1157.1 212.714 1157.04 212.65L1153.97 208.96C1153.93 208.903 1153.9 208.832 1153.9 208.76C1153.9 208.688 1153.93 208.618 1153.97 208.56L1157.25 204.86C1157.45 204.63 1157.58 204.346 1157.63 204.043C1157.68 203.74 1157.64 203.43 1157.51 203.15C1156.76 201.543 1156.24 199.835 1155.98 198.08C1155.93 197.78 1155.8 197.5 1155.6 197.272C1155.4 197.044 1155.14 196.877 1154.85 196.79L1150.03 195.44C1149.96 195.421 1149.9 195.378 1149.85 195.317C1149.81 195.257 1149.79 195.184 1149.8 195.11L1150.32 190.22C1150.33 190.147 1150.36 190.08 1150.42 190.029C1150.47 189.978 1150.54 189.946 1150.61 189.94L1155.54 189.65C1155.84 189.635 1156.14 189.532 1156.38 189.355C1156.63 189.177 1156.82 188.933 1156.93 188.65C1157.54 186.984 1158.38 185.412 1159.43 183.98C1159.61 183.737 1159.72 183.447 1159.73 183.145C1159.75 182.843 1159.68 182.542 1159.53 182.28L1157.07 177.91C1157.04 177.845 1157.03 177.772 1157.05 177.702C1157.06 177.632 1157.1 177.568 1157.15 177.52L1160.98 174.43C1161.01 174.401 1161.05 174.379 1161.09 174.367C1161.13 174.355 1161.17 174.352 1161.21 174.36C1161.24 174.36 1161.27 174.366 1161.3 174.378C1161.33 174.39 1161.36 174.408 1161.38 174.43L1165.08 177.72C1165.31 177.921 1165.6 178.052 1165.9 178.096C1166.2 178.14 1166.51 178.097 1166.79 177.97C1168.4 177.219 1170.11 176.703 1171.86 176.44C1172.16 176.392 1172.44 176.261 1172.67 176.061C1172.9 175.861 1173.06 175.601 1173.15 175.31L1174.51 170.49C1174.52 170.419 1174.57 170.357 1174.63 170.316C1174.69 170.275 1174.76 170.258 1174.83 170.27L1179.72 170.79C1179.79 170.795 1179.86 170.826 1179.91 170.877C1179.96 170.929 1180 170.997 1180 171.07L1180.29 176C1180.3 176.304 1180.41 176.597 1180.58 176.843C1180.76 177.09 1181.01 177.28 1181.29 177.39C1182.99 178.013 1184.6 178.882 1186.05 179.97C1186.3 180.151 1186.59 180.257 1186.89 180.277C1187.2 180.296 1187.5 180.228 1187.77 180.08L1192.08 177.63C1192.14 177.612 1192.2 177.612 1192.26 177.63C1192.3 177.631 1192.34 177.642 1192.38 177.661C1192.41 177.68 1192.45 177.707 1192.47 177.74L1195.56 181.57C1195.61 181.627 1195.63 181.697 1195.63 181.77C1195.63 181.843 1195.61 181.913 1195.56 181.97L1192.26 185.69C1192.06 185.919 1191.93 186.201 1191.88 186.503C1191.84 186.805 1191.88 187.113 1192.01 187.39C1192.75 189.005 1193.25 190.715 1193.51 192.47C1193.55 192.772 1193.68 193.054 1193.88 193.283C1194.08 193.512 1194.35 193.678 1194.64 193.76L1199.43 195.1C1199.5 195.119 1199.56 195.163 1199.6 195.224C1199.64 195.284 1199.66 195.358 1199.65 195.43L1199.13 200.32L1199.16 200.21Z" fill="white"/>
<path d="M1176.03 183.14C1173.66 182.887 1171.27 183.342 1169.15 184.449C1167.04 185.556 1165.3 187.264 1164.16 189.358C1163.02 191.451 1162.52 193.837 1162.74 196.212C1162.95 198.587 1163.86 200.846 1165.36 202.703C1166.86 204.559 1168.87 205.93 1171.15 206.642C1173.43 207.354 1175.86 207.375 1178.15 206.703C1180.44 206.03 1182.47 204.694 1184 202.864C1185.53 201.034 1186.49 198.791 1186.74 196.42C1187.08 193.24 1186.14 190.056 1184.13 187.566C1182.12 185.077 1179.21 183.485 1176.03 183.14ZM1173.8 203.96C1172.05 203.772 1170.39 203.069 1169.04 201.94C1167.69 200.811 1166.7 199.306 1166.2 197.616C1165.7 195.926 1165.72 194.126 1166.24 192.445C1166.77 190.763 1167.78 189.275 1169.15 188.168C1170.52 187.061 1172.19 186.386 1173.95 186.227C1175.7 186.068 1177.46 186.433 1179.01 187.276C1180.56 188.118 1181.82 189.4 1182.64 190.96C1183.46 192.52 1183.8 194.288 1183.61 196.04C1183.36 198.391 1182.18 200.545 1180.34 202.03C1178.5 203.515 1176.15 204.209 1173.8 203.96Z" fill="white"/>
<path d="M1225.45 148.05L1222.36 147.53C1222.04 146.493 1221.63 145.488 1221.12 144.53L1222.94 141.98C1223.31 141.457 1223.49 140.818 1223.44 140.177C1223.39 139.535 1223.11 138.934 1222.65 138.48L1219.91 135.74C1219.66 135.485 1219.36 135.283 1219.03 135.146C1218.69 135.008 1218.34 134.938 1217.98 134.94C1217.42 134.937 1216.87 135.112 1216.41 135.44L1213.85 137.26C1212.86 136.737 1211.81 136.309 1210.74 135.98L1210.23 132.98C1210.13 132.343 1209.8 131.765 1209.3 131.349C1208.81 130.933 1208.19 130.706 1207.54 130.71H1203.67C1203.03 130.709 1202.4 130.936 1201.91 131.352C1201.42 131.768 1201.09 132.345 1200.99 132.98L1200.45 136.11C1199.41 136.431 1198.41 136.853 1197.45 137.37L1194.92 135.55C1194.4 135.173 1193.76 134.995 1193.12 135.048C1192.47 135.101 1191.87 135.382 1191.42 135.84L1188.67 138.58C1188.21 139.035 1187.93 139.638 1187.88 140.28C1187.82 140.923 1188 141.564 1188.37 142.09L1190.21 144.67C1189.71 145.63 1189.3 146.634 1188.99 147.67L1185.94 148.18C1185.3 148.286 1184.72 148.615 1184.31 149.108C1183.89 149.6 1183.66 150.224 1183.66 150.87V154.74C1183.66 155.386 1183.89 156.012 1184.31 156.505C1184.72 156.997 1185.3 157.325 1185.94 157.43L1189.06 157.96C1189.39 158.996 1189.81 160 1190.32 160.96L1188.51 163.48C1188.14 164.006 1187.96 164.647 1188.02 165.29C1188.07 165.933 1188.35 166.536 1188.81 166.99L1191.55 169.73C1192 170.187 1192.6 170.468 1193.24 170.521C1193.88 170.574 1194.52 170.396 1195.04 170.02L1197.63 168.18C1198.56 168.669 1199.53 169.07 1200.53 169.38L1201.05 172.47C1201.16 173.104 1201.48 173.68 1201.97 174.096C1202.47 174.511 1203.09 174.739 1203.73 174.74H1207.62C1208.26 174.739 1208.88 174.511 1209.38 174.096C1209.87 173.68 1210.19 173.104 1210.3 172.47L1210.83 169.38C1211.87 169.058 1212.87 168.643 1213.83 168.14L1216.37 169.96C1216.83 170.288 1217.39 170.463 1217.96 170.46C1218.32 170.461 1218.67 170.39 1219 170.253C1219.33 170.116 1219.63 169.914 1219.88 169.66L1222.62 166.92C1223.08 166.466 1223.36 165.865 1223.41 165.223C1223.46 164.582 1223.29 163.943 1222.91 163.42L1221.09 160.86C1221.6 159.903 1222.02 158.898 1222.33 157.86L1225.42 157.35C1226.06 157.244 1226.64 156.915 1227.05 156.423C1227.47 155.93 1227.7 155.306 1227.7 154.66V150.79C1227.72 150.138 1227.51 149.499 1227.09 148.995C1226.68 148.49 1226.09 148.154 1225.45 148.05ZM1225.24 154.61C1225.24 154.667 1225.22 154.723 1225.18 154.767C1225.15 154.811 1225.1 154.84 1225.04 154.85L1221.18 155.49C1220.94 155.531 1220.72 155.638 1220.55 155.8C1220.37 155.961 1220.24 156.169 1220.18 156.4C1219.83 157.757 1219.29 159.056 1218.58 160.26C1218.46 160.466 1218.4 160.704 1218.41 160.944C1218.42 161.184 1218.5 161.415 1218.64 161.61L1220.91 164.81C1220.94 164.856 1220.96 164.912 1220.96 164.97C1220.96 165.028 1220.94 165.084 1220.91 165.13L1218.17 167.87C1218.15 167.892 1218.12 167.91 1218.09 167.922C1218.06 167.934 1218.03 167.94 1218 167.94C1217.95 167.942 1217.9 167.924 1217.86 167.89L1214.67 165.62C1214.47 165.49 1214.23 165.421 1213.99 165.421C1213.75 165.421 1213.51 165.49 1213.31 165.62C1212.11 166.331 1210.81 166.869 1209.46 167.22C1209.23 167.277 1209.01 167.403 1208.85 167.581C1208.69 167.759 1208.58 167.982 1208.55 168.22L1207.9 172.08C1207.89 172.137 1207.86 172.19 1207.82 172.228C1207.77 172.267 1207.72 172.288 1207.66 172.29H1203.78C1203.72 172.288 1203.67 172.267 1203.62 172.228C1203.58 172.19 1203.55 172.137 1203.54 172.08L1202.9 168.22C1202.86 167.982 1202.76 167.76 1202.6 167.582C1202.43 167.405 1202.22 167.278 1201.99 167.22C1200.67 166.874 1199.4 166.353 1198.22 165.67C1198.03 165.563 1197.81 165.508 1197.59 165.51C1197.33 165.506 1197.08 165.587 1196.88 165.74L1193.66 168.03C1193.61 168.038 1193.57 168.038 1193.52 168.03C1193.45 168.03 1193.39 168.005 1193.34 167.96L1190.6 165.22C1190.57 165.175 1190.55 165.121 1190.55 165.065C1190.55 165.009 1190.57 164.955 1190.6 164.91L1192.87 161.73C1193 161.527 1193.07 161.291 1193.07 161.05C1193.07 160.809 1193 160.573 1192.87 160.37C1192.15 159.172 1191.61 157.88 1191.25 156.53C1191.19 156.297 1191.06 156.087 1190.88 155.924C1190.71 155.761 1190.49 155.652 1190.25 155.61L1186.37 154.96C1186.31 154.95 1186.26 154.921 1186.23 154.877C1186.19 154.833 1186.17 154.777 1186.17 154.72V150.85C1186.17 150.793 1186.19 150.737 1186.23 150.693C1186.26 150.649 1186.31 150.62 1186.37 150.61L1190.21 149.97C1190.45 149.928 1190.67 149.819 1190.84 149.656C1191.02 149.493 1191.15 149.283 1191.21 149.05C1191.55 147.692 1192.08 146.389 1192.78 145.18C1192.9 144.975 1192.96 144.739 1192.95 144.501C1192.94 144.263 1192.86 144.034 1192.72 143.84L1190.43 140.62C1190.39 140.577 1190.37 140.522 1190.37 140.465C1190.37 140.408 1190.39 140.353 1190.43 140.31L1193.17 137.57C1193.19 137.545 1193.22 137.524 1193.25 137.511C1193.28 137.497 1193.32 137.49 1193.35 137.49C1193.4 137.476 1193.44 137.476 1193.49 137.49L1196.66 139.75C1196.86 139.89 1197.09 139.971 1197.33 139.981C1197.57 139.992 1197.81 139.932 1198.02 139.81C1199.22 139.089 1200.52 138.543 1201.87 138.19C1202.1 138.127 1202.31 138 1202.47 137.822C1202.63 137.645 1202.74 137.426 1202.78 137.19L1203.44 133.29C1203.45 133.234 1203.48 133.184 1203.52 133.148C1203.57 133.112 1203.62 133.091 1203.68 133.09H1207.55C1207.61 133.091 1207.66 133.112 1207.71 133.148C1207.75 133.184 1207.78 133.234 1207.79 133.29L1208.44 137.13C1208.48 137.369 1208.59 137.591 1208.75 137.769C1208.91 137.946 1209.13 138.072 1209.36 138.13C1210.74 138.483 1212.07 139.028 1213.3 139.75C1213.51 139.872 1213.74 139.932 1213.98 139.923C1214.22 139.914 1214.45 139.837 1214.65 139.7L1217.83 137.42C1217.87 137.408 1217.92 137.408 1217.96 137.42C1218.03 137.419 1218.09 137.444 1218.14 137.49L1220.88 140.23C1220.91 140.276 1220.93 140.332 1220.93 140.39C1220.93 140.448 1220.91 140.504 1220.88 140.55L1218.61 143.74C1218.47 143.935 1218.39 144.166 1218.38 144.406C1218.37 144.646 1218.43 144.884 1218.55 145.09C1219.27 146.294 1219.8 147.593 1220.15 148.95C1220.21 149.182 1220.34 149.391 1220.52 149.552C1220.69 149.713 1220.91 149.82 1221.15 149.86L1225.01 150.51C1225.07 150.52 1225.12 150.549 1225.15 150.593C1225.19 150.637 1225.21 150.693 1225.21 150.75V154.62L1225.24 154.61Z" fill="white"/>
<path d="M1205.69 143.17C1203.81 143.172 1201.98 143.731 1200.41 144.776C1198.85 145.821 1197.64 147.305 1196.92 149.041C1196.2 150.777 1196.02 152.687 1196.38 154.529C1196.75 156.372 1197.66 158.063 1198.99 159.391C1200.32 160.719 1202.01 161.622 1203.85 161.988C1205.69 162.354 1207.6 162.165 1209.34 161.446C1211.07 160.726 1212.56 159.509 1213.6 157.947C1214.64 156.385 1215.2 154.548 1215.2 152.67C1215.2 150.149 1214.19 147.733 1212.41 145.952C1210.63 144.17 1208.21 143.17 1205.69 143.17ZM1205.69 159.69C1204.31 159.69 1202.95 159.279 1201.8 158.51C1200.65 157.741 1199.75 156.648 1199.22 155.369C1198.69 154.09 1198.55 152.682 1198.82 151.324C1199.09 149.966 1199.76 148.719 1200.74 147.74C1201.72 146.761 1202.97 146.094 1204.32 145.824C1205.68 145.554 1207.09 145.693 1208.37 146.223C1209.65 146.753 1210.74 147.65 1211.51 148.801C1212.28 149.952 1212.69 151.305 1212.69 152.69C1212.69 154.546 1211.95 156.327 1210.64 157.64C1209.33 158.952 1207.55 159.69 1205.69 159.69Z" fill="white"/>
</g>
<defs>
<clipPath id="clip0_109_2">
<rect width="1227.71" height="261.91" fill="white"/>
</clipPath>
</defs>
</svg>
