<svg width="24" height="24" viewBox="0 0 24 24" fill="none" xmlns="http://www.w3.org/2000/svg">
<path d="M14.708 4.29199C14.8011 4.38488 14.875 4.49523 14.9254 4.61672C14.9759 4.73821 15.0018 4.86845 15.0018 4.99999C15.0018 5.13152 14.9759 5.26176 14.9254 5.38325C14.875 5.50474 14.8011 5.6151 14.708 5.70799L8.41402 12L14.708 18.292C14.801 18.385 14.8747 18.4953 14.9251 18.6168C14.9754 18.7383 15.0013 18.8685 15.0013 19C15.0013 19.1315 14.9754 19.2617 14.9251 19.3832C14.8747 19.5046 14.801 19.615 14.708 19.708C14.615 19.801 14.5047 19.8747 14.3832 19.925C14.2617 19.9754 14.1315 20.0012 14 20.0012C13.8685 20.0012 13.7383 19.9754 13.6169 19.925C13.4954 19.8747 13.385 19.801 13.292 19.708L6.29202 12.708C6.19889 12.6151 6.12501 12.5047 6.07459 12.3833C6.02418 12.2618 5.99823 12.1315 5.99823 12C5.99823 11.8685 6.02418 11.7382 6.07459 11.6167C6.12501 11.4952 6.19889 11.3849 6.29202 11.292L13.292 4.29199C13.3849 4.19886 13.4953 4.12497 13.6168 4.07456C13.7382 4.02415 13.8685 3.9982 14 3.9982C14.1316 3.9982 14.2618 4.02415 14.3833 4.07456C14.5048 4.12497 14.6151 4.19886 14.708 4.29199Z" fill="white"/>
</svg>
