<svg width="24" height="24" viewBox="0 0 24 24" fill="none" xmlns="http://www.w3.org/2000/svg">
<g clip-path="url(#clip0_19_42)">
<g clip-path="url(#clip1_19_42)">
<path d="M8.625 7.625V9.5H14.875V7.625C14.875 5.89844 13.4766 4.5 11.75 4.5C10.0234 4.5 8.625 5.89844 8.625 7.625ZM6.125 9.5V7.625C6.125 4.51953 8.64453 2 11.75 2C14.8555 2 17.375 4.51953 17.375 7.625V9.5H18C19.3789 9.5 20.5 10.6211 20.5 12V19.5C20.5 20.8789 19.3789 22 18 22H5.5C4.12109 22 3 20.8789 3 19.5V12C3 10.6211 4.12109 9.5 5.5 9.5H6.125Z" fill="white"/>
</g>
</g>
<defs>
<clipPath id="clip0_19_42">
<rect width="24" height="24" fill="white"/>
</clipPath>
<clipPath id="clip1_19_42">
<rect width="17.5" height="20" fill="white" transform="translate(3 2)"/>
</clipPath>
</defs>
</svg>
