<svg width="24" height="24" viewBox="0 0 24 24" fill="none" xmlns="http://www.w3.org/2000/svg">
<path d="M8.29299 4.293C8.10552 4.48053 8.0002 4.73484 8.0002 5C8.0002 5.26516 8.10552 5.51947 8.29299 5.707L14.586 12L8.29299 18.293C8.19748 18.3852 8.1213 18.4956 8.06889 18.6176C8.01648 18.7396 7.98889 18.8708 7.98774 19.0036C7.98659 19.1364 8.01189 19.2681 8.06217 19.391C8.11245 19.5138 8.1867 19.6255 8.28059 19.7194C8.37449 19.8133 8.48614 19.8875 8.60904 19.9378C8.73193 19.9881 8.86361 20.0134 8.99639 20.0123C9.12917 20.0111 9.26039 19.9835 9.38239 19.9311C9.5044 19.8787 9.61474 19.8025 9.70699 19.707L16.707 12.707C16.8945 12.5195 16.9998 12.2652 16.9998 12C16.9998 11.7348 16.8945 11.4805 16.707 11.293L9.70699 4.293C9.51946 4.10553 9.26515 4.00021 8.99999 4.00021C8.73483 4.00021 8.48052 4.10553 8.29299 4.293Z" fill="white"/>
</svg>
