<svg width="24" height="24" viewBox="0 0 24 24" fill="none" xmlns="http://www.w3.org/2000/svg">
<path d="M20.7891 19.6969L15.7828 14.6437C16.7625 13.4156 17.3531 11.8594 17.3531 10.1672C17.3531 6.20624 14.1422 2.9953 10.1766 2.9953C6.21094 2.9953 3 6.21093 3 10.1719C3 14.1328 6.21094 17.3437 10.1766 17.3437C11.8922 17.3437 13.4625 16.7437 14.7 15.7406L19.6734 20.7609C19.8234 20.9203 20.0297 21 20.2313 21C20.4234 21 20.6156 20.9297 20.7609 20.7891C21.0703 20.4937 21.0797 20.0062 20.7891 19.6969ZM10.1766 15.8016C8.67188 15.8016 7.25625 15.2156 6.19219 14.1516C5.12813 13.0875 4.54219 11.6719 4.54219 10.1719C4.54219 8.66718 5.12813 7.25155 6.19219 6.19218C7.25625 5.12811 8.67188 4.54218 10.1766 4.54218C11.6813 4.54218 13.0969 5.12811 14.1609 6.19218C15.225 7.25624 15.8109 8.67186 15.8109 10.1719C15.8109 11.6766 15.225 13.0922 14.1609 14.1516C13.0969 15.2156 11.6813 15.8016 10.1766 15.8016Z" fill="white"/>
</svg>
