<svg width="24" height="24" viewBox="0 0 24 24" fill="none" xmlns="http://www.w3.org/2000/svg">
<path d="M14.5357 7C14.5357 6.1712 14.2159 5.37634 13.6466 4.79029C13.0773 4.20424 12.3051 3.875 11.5 3.875C10.6949 3.875 9.92273 4.20424 9.35343 4.79029C8.78412 5.37634 8.46429 6.1712 8.46429 7C8.46429 7.8288 8.78412 8.62366 9.35343 9.20971C9.92273 9.79576 10.6949 10.125 11.5 10.125C12.3051 10.125 13.0773 9.79576 13.6466 9.20971C14.2159 8.62366 14.5357 7.8288 14.5357 7ZM6.64286 7C6.64286 5.67392 7.15459 4.40215 8.06548 3.46447C8.97637 2.52678 10.2118 2 11.5 2C12.7882 2 14.0236 2.52678 14.9345 3.46447C15.8454 4.40215 16.3571 5.67392 16.3571 7C16.3571 8.32608 15.8454 9.59785 14.9345 10.5355C14.0236 11.4732 12.7882 12 11.5 12C10.2118 12 8.97637 11.4732 8.06548 10.5355C7.15459 9.59785 6.64286 8.32608 6.64286 7ZM4.87076 20.125H18.1292C17.7915 17.6523 15.7272 15.75 13.2342 15.75H9.76585C7.27277 15.75 5.20848 17.6523 4.87076 20.125ZM3 20.8398C3 16.9922 6.02813 13.875 9.76585 13.875H13.2342C16.9719 13.875 20 16.9922 20 20.8398C20 21.4805 19.4953 22 18.873 22H4.12701C3.50469 22 3 21.4805 3 20.8398Z" fill="black"/>
</svg>
